<?xml version="1.0" standalone="no"?>
<!DOCTYPE svg PUBLIC "-//W3C//DTD SVG 20010904//EN"
 "http://www.w3.org/TR/2001/REC-SVG-20010904/DTD/svg10.dtd">
<svg version="1.0" xmlns="http://www.w3.org/2000/svg"
 width="322.000000pt" height="251.000000pt" viewBox="0 0 322.000000 251.000000"
 preserveAspectRatio="xMidYMid meet">

<g transform="translate(0.000000,251.000000) scale(0.100000,-0.100000)"
fill="#000000" stroke="none">
<path d="M0 1255 l0 -1255 1610 0 1610 0 0 1255 0 1255 -1610 0 -1610 0 0
-1255z m1731 780 c84 -151 155 -272 158 -269 3 3 67 123 141 267 l135 262 98
3 98 3 -136 -263 c-75 -145 -159 -308 -187 -364 l-51 -101 73 -129 c40 -71 74
-130 75 -132 1 -1 125 217 275 485 150 269 277 494 283 501 6 8 41 12 108 12
l99 0 0 -770 0 -770 -100 0 -100 0 -2 577 -3 577 -247 -439 -246 -440 -64 -3
-63 -2 -94 166 c-51 91 -96 162 -101 157 -11 -12 -310 -596 -310 -605 0 -4
-46 -8 -103 -8 l-104 0 -248 633 c-136 347 -251 636 -255 640 -4 5 -41 -79
-83 -185 -42 -106 -155 -393 -251 -638 l-174 -445 -101 -3 c-56 -1 -101 1
-101 6 0 4 139 350 308 768 l308 759 90 0 89 0 210 -515 210 -515 2 515 c2
283 5 521 8 528 3 8 33 12 103 12 l99 0 154 -275z m-1429 -1650 c27 -66 48
-121 48 -122 0 -2 -8 -3 -18 -3 -11 0 -23 13 -31 35 -12 34 -14 35 -65 35 -50
0 -52 -1 -65 -35 -8 -23 -19 -35 -31 -35 -16 0 -14 12 24 108 24 59 46 115 49
125 16 43 42 11 89 -108z m288 110 c0 -12 -14 -15 -65 -15 l-65 0 0 -40 0 -39
55 -3 c71 -4 71 -22 0 -26 l-55 -3 0 -39 0 -39 67 -3 c42 -2 68 -8 71 -15 3
-10 -18 -13 -82 -13 l-86 0 0 125 0 125 80 0 c64 0 80 -3 80 -15z m138 -87
c20 -54 39 -98 42 -98 3 0 22 43 40 96 32 87 51 116 67 101 3 -3 -16 -60 -43
-126 -34 -86 -52 -121 -64 -121 -12 0 -30 34 -63 118 -26 64 -47 121 -47 125
0 5 7 7 16 5 11 -2 29 -38 52 -100z m262 18 c0 -100 19 -136 74 -136 54 0 69
27 74 130 3 68 8 90 18 90 18 0 20 -141 3 -189 -21 -61 -114 -82 -166 -37 -27
23 -28 29 -31 125 -3 87 -2 101 12 101 13 0 16 -14 16 -84z m355 9 c22 -41 43
-75 47 -75 3 0 25 34 47 75 30 54 47 75 61 75 19 0 20 -7 20 -125 0 -118 -1
-125 -20 -125 -17 0 -19 8 -22 88 l-3 87 -38 -68 c-21 -37 -43 -65 -48 -61 -5
3 -24 30 -40 60 -17 30 -35 57 -40 60 -5 3 -9 -32 -9 -80 0 -70 -3 -86 -15
-86 -13 0 -15 21 -15 125 0 113 2 125 18 125 11 0 31 -25 57 -75z m492 -15
c39 -49 73 -86 77 -83 3 4 6 44 6 90 0 67 3 83 15 83 13 0 15 -21 15 -125 0
-102 -3 -125 -14 -125 -8 0 -45 38 -81 85 -37 47 -71 85 -76 85 -5 0 -9 -38
-9 -85 0 -69 -3 -85 -15 -85 -13 0 -15 21 -15 125 0 99 3 125 14 125 7 0 45
-40 83 -90z m383 75 c0 -12 -14 -15 -65 -15 l-65 0 0 -40 0 -40 55 0 c42 0 55
-3 55 -15 0 -12 -13 -15 -55 -15 l-55 0 0 -40 0 -40 65 0 c51 0 65 -3 65 -15
0 -12 -16 -15 -85 -15 l-85 0 0 118 c0 65 3 122 7 125 3 4 42 7 85 7 63 0 78
-3 78 -15z m130 -35 c18 -27 36 -47 41 -44 5 3 23 25 39 50 17 24 37 44 45 44
21 0 20 -5 -26 -70 l-42 -58 35 -49 c50 -69 52 -73 31 -73 -10 0 -30 19 -46
45 -16 25 -33 45 -37 45 -5 0 -23 -20 -40 -45 -17 -25 -37 -45 -45 -45 -21 0
-19 5 25 67 l39 56 -39 56 c-44 62 -47 71 -26 71 8 0 28 -22 46 -50z m252 -39
c4 -103 19 -131 73 -131 54 0 69 28 73 131 3 68 7 89 18 89 11 0 14 -19 14
-85 0 -122 -26 -165 -100 -165 -42 0 -84 23 -98 55 -18 39 -16 195 2 195 11 0
15 -21 18 -89z m413 77 c26 -12 29 -37 4 -28 -8 2 -34 4 -59 5 -43 0 -45 -1
-45 -30 0 -27 5 -31 54 -47 69 -22 81 -33 81 -74 0 -42 -30 -64 -88 -64 -49 0
-110 26 -95 41 6 6 20 6 37 -1 39 -14 92 -12 105 4 19 23 -3 54 -43 61 -50 10
-96 41 -96 66 0 64 75 99 145 67z"/>
<path d="M1570 1540 c0 -219 4 -380 9 -374 5 5 53 95 107 200 l98 191 -98 174
c-54 96 -102 178 -107 184 -5 5 -9 -145 -9 -375z"/>
<path d="M223 443 c-3 -10 -12 -32 -19 -50 -7 -17 -10 -34 -6 -37 8 -9 70 -7
76 2 6 11 -26 102 -37 102 -4 0 -10 -8 -14 -17z"/>
</g>
</svg>
