<svg class="svg-alliedLogo" xmlns="http://www.w3.org/2000/svg" viewBox="0 0 223 99.9"> <path fill="#F58220" d="M216.4 77.5v-1.6H1.3l-.8 1.6z"></path> <path d="M32.4 84.4h-5.6l.6-1.9h13.5l-.6 1.9h-5.6l-4.9 15h-2.2l4.8-15zM42.2 82.5h2L42.1 89c1.1-1.5 3.1-2.1 4.5-2.1 3.2 0 3.6 1.8 2.8 4.5l-2.6 8.1h-2l2.7-8.3c.5-1.5-.1-2.5-1.7-2.5-2.4 0-4.2 1.6-4.9 3.8l-2.2 6.9h-2l5.5-16.9zM52.5 92.2c.7-1.9 2.5-3.5 4.6-3.5 2 0 2.9 1.5 2.4 3.5h-7zm5.9 3.4c-.9 1.6-2.3 2.4-3.9 2.4-2.7 0-3.3-1.9-2.5-4h9.2c1.1-3 1.1-7-3.3-7-3.3 0-6.6 2.7-7.8 6.4-1.1 3.7-.1 6.4 3.8 6.4 2.7 0 5.2-1.5 6.6-4.2h-2.1zM84 87.6c.3-2.4-1.2-3.6-3.6-3.6-4 0-6.8 3.3-7.9 6.8-1.2 3.9-.6 7.2 3.5 7.2 3 0 5.3-2.1 6.5-4.9h2.2c-1.8 4.2-5.3 6.8-9.5 6.8-5.3 0-6.5-3.9-4.9-8.8s5.7-8.9 10.9-8.9c3.5 0 5.8 1.9 5.2 5.5l-2.4-.1zM93.1 95.2c-.4 1.1-2 2.8-4.6 2.8-1.2 0-2.2-.5-1.8-1.8.5-1.5 1.8-2 3.2-2.2 1.4-.2 2.9-.3 3.9-.8l-.7 2zm2.4 2.6c-.3.1-.5.2-.7.2-.6 0-.5-.4-.2-1.4l2-6.3c.9-2.9-1.3-3.4-3.5-3.4-2.7 0-5.4 1.1-6.5 4.1h2c.7-1.8 2.1-2.3 3.8-2.3 1.3 0 2.6.3 2.1 2-.5 1.5-2.3 1.4-4.7 1.8-2.2.4-4.5 1-5.4 3.8-.8 2.4.7 3.4 2.9 3.4 1.7 0 3.4-.6 4.9-1.9-.4 1.3 0 1.9 1.1 1.9.6 0 1.1-.1 1.6-.3l.6-1.6zM100 87.2h1.9l-.8 2.6c1.6-2 3.3-2.9 5.4-2.9l-.7 2.1c-3.2 0-5 1.8-6 4.9L98 99.5h-2l4-12.3zM106.9 92.2c.7-1.9 2.5-3.5 4.6-3.5 2 0 2.9 1.5 2.4 3.5h-7zm5.8 3.4c-.9 1.6-2.3 2.4-3.9 2.4-2.7 0-3.3-1.9-2.5-4h9.2c1.1-3 1.1-7-3.3-7-3.3 0-6.6 2.7-7.8 6.4-1.1 3.7-.1 6.4 3.8 6.4 2.7 0 5.2-1.5 6.6-4.2h-2.1zM118.8 89h-2.1l.6-1.8h2.1l.6-1.8c.6-2 2.2-3 4.4-3 .4 0 .9.1 1.2.2l-.6 1.8c-.3-.1-.7-.2-1.1-.2-1 0-1.6.3-2 1.4l-.6 1.7h2.4l-.6 1.8h-2.4l-3.4 10.5h-2l3.5-10.6zM131.2 99.5h-1.9l.6-1.9c-1.3 1.5-2.9 2.2-4.7 2.2-3.2 0-3.6-1.8-2.8-4.5l2.6-8.1h2l-2.7 8.3c-.5 1.5.1 2.5 1.7 2.5 2.4 0 4.2-1.6 4.9-3.8l2.2-6.9h2l-3.9 12.2zM138.4 82.5h2l-5.5 16.9h-2l5.5-16.9zM150.5 82.5h3.1l.7 14.2 10-14.2h3.1l-5.5 16.9h-2.1l4.6-14.1-9.8 14.1h-1.9l-.7-14.1-4.6 14.1H145l5.5-16.9zM167 93.3c1-3 3.2-4.6 5.3-4.6s3.3 1.7 2.3 4.6c-1 3-3.2 4.6-5.3 4.6-2.1.1-3.2-1.6-2.3-4.6zm-2.1 0c-1.2 3.6 0 6.4 3.9 6.4s6.9-2.8 8-6.4c1.2-3.6 0-6.4-3.9-6.4-3.8 0-6.8 2.8-8 6.4zM180.8 99.5h-2.2l-.6-12.2h2.2l.1 10.2 6.7-10.2h2.1l-8.3 12.2zM189.3 92.2c.8-1.9 2.5-3.5 4.6-3.5 2 0 2.9 1.5 2.4 3.5h-7zm5.9 3.4c-.9 1.6-2.3 2.4-3.9 2.4-2.7 0-3.3-1.9-2.5-4h9.2c1.1-3 1.1-7-3.3-7-3.3 0-6.6 2.7-7.8 6.4-1.1 3.7-.1 6.4 3.8 6.4 2.7 0 5.2-1.5 6.6-4.2h-2.1zM201.1 87.2h1.9l-.8 2.6c1.6-2 3.3-2.9 5.4-2.9l-.7 2.1c-3.2 0-5 1.8-6 4.9l-1.8 5.4h-2l4-12.1zM207.1 95.6c-.5 1.8.9 2.4 2.5 2.4 1.3 0 3-.3 3.5-1.8.5-1.6-1.4-1.8-3.3-2.3-1.8-.5-3.6-1.1-2.9-3.5.8-2.5 3.6-3.5 5.7-3.5 2.7 0 4.6.9 3.8 3.8h-2c.4-1.6-.8-2.1-2.2-2.1-1.2 0-2.7.3-3.1 1.6-.5 1.4 1.6 1.7 3.3 2.1 1.9.5 3.6 1.1 2.9 3.5-.9 2.9-4 3.9-6.5 3.9-2.7 0-4.7-1.1-3.8-4.1h2.1zM222.9 86.9h-.5v-3.4l-1.1 3.4h-.3l-1.1-3.4v3.4h-.5V83h.8l.9 2.8 1-2.8h.8v3.9zm-4.1-3.4h-1v3.4h-.6v-3.4h-1v-.6h2.6v.6z"></path> <path fill="#F58220" d="M15.6 38.1h11.7L84.5 0z"></path> <path d="M101 0h10l-9.2 28.3h12.4l-3.2 9.8H88.6L101 0z"></path> <path fill="#FFD420" d="M.4 38.1h15.2L84.4 0z"></path> <path d="M84.4 0L27.3 38.1h21.1l17-17.5c-.7-.8-1.1-2.8-.3-4.6.6-1.3 2.9-2.7 4.3-3.2.4.4.8.6 1.4.7.5.1.9 0 1.6-.1l6.7-7-6.1 7.3c.3.2.7.5 1.1.5.6.1 1-.1 1.8-.3.3.7-1.2 4.7-4.3 6.2-1.2.5-3.3.8-4.7.9L52.5 38.1h12.2l7.6-10.4H80l-3.5 10.4H86L98.4 0h-14zM82 21.4h-5.3l7.7-9.9-2.4 9.9zM65.9 49.2h2.7c1.5 0 2.8.1 2.1 2.3-.8 2.4-2.5 2.5-4 2.5h-2.3l1.5-4.8zM54.2 66.9h6l2.3-7.2h3.6c4.5 0 8.6-2.7 10.4-8.4 1.1-3.4.8-8.1-4.6-8.1h-10l-7.7 23.7zM80 43.1h6l-7.7 23.7h-6L80 43.1zM97.1 52c.2-.9.5-3.5-2-3.5-2.8 0-4.8 3.3-5.8 6.5s-1.2 6.5 1.6 6.5c2 0 3.4-1.7 4.5-4h5.9c-1.6 4.8-6.4 9.9-12.2 9.9-6.3 0-8.2-5.4-5.9-12.4 2.4-7.5 7.9-12.4 14-12.4 5.4 0 7.2 3.5 5.8 9.4h-5.9zM106.8 43.1h6l-2.7 8.2h.1l8-8.2h7.4l-10.1 9.3 3.6 14.5h-7.5l-1.8-9.2-2.4 2.2-2.3 7h-6l7.7-23.8zM127.6 43.1h15.1l-2 6.1h-9.1l-1 3h7.8l-1.8 5.7h-7.8l-2.9 9h-6l7.7-23.8zM144.7 55c1.7-5.3 4.5-6.5 6-6.5s3.5 1.2 1.8 6.5-4.5 6.5-6 6.5c-1.6 0-3.6-1.2-1.8-6.5zm-6.1 0c-2.4 7.2-.1 12.4 5.9 12.4s11.6-5.2 14-12.4.1-12.4-5.9-12.4-11.6 5.2-14 12.4zM167.5 48.8h2.8c2.3 0 2.7.9 2.2 2.4-.7 2.1-2.3 2.4-3.4 2.4h-3.2l1.6-4.8zm-12 18.1h6l2.7-8.3h3.2c2.4 0 1.8 2.4 1.2 4.6-.3 1.2-.6 2.5-.7 3.7h6c-.2-1.1.7-3.9 1-5.1.7-3 .4-5.2-1-5.9 2.3-.9 4.1-3.5 4.9-5.9 1.5-4.5-.8-6.8-4.2-6.8h-11.5l-7.6 23.7zM186.7 49.2h1.9c4.4 0 3.4 4.2 2.9 5.7-.7 2.2-2.5 5.9-6.2 5.9h-2.4l3.8-11.6zm-11.8 17.7h8.7c6.8 0 11.5-4.6 13.9-11.9 1.9-6 1.5-11.8-5-11.8h-9.9l-7.7 23.7zM202.6 58.9c-.2.6-.3 1.1-.3 1.6 0 1.4 1.2 1.7 2.3 1.7 1 0 2.6-.4 3.2-2.2.4-1.2-.3-1.6-3.3-2.7-2.8-1.1-6-2.1-4.4-6.9 1.8-5.5 6.4-7.8 10.5-7.8 4.3 0 7.4 2 5.7 7.7h-5.7c.4-.9.3-1.5-.1-1.9-.4-.4-1-.6-1.6-.6-.8 0-2.3.3-2.7 1.6-.4 1.7 2.2 2.1 4.7 3s4.7 2.5 3.3 6.8c-2 6.2-7.3 8.2-11.7 8.2-2.2 0-8.2-1-5.8-8.5h5.9zM125.9 0h10l-9.2 28.3h12.4l-3.2 9.8h-22.4L125.9 0zM150.6 0h10l-12.4 38.1h-10L150.6 0zM163.2 0h24.4l-3.2 9.8H170l-1.5 4.7h14.2l-2.9 9.1h-14.2l-1.5 4.7h14.3l-3.2 9.8h-24.3L163.2 0zM190.2 0h16.4c10.8 0 11.5 9.4 8.4 19-3.8 11.7-11.5 19.1-22.7 19.1h-14.4L190.2 0zm.8 28.3h3.9c6.2 0 9-5.9 10.2-9.5.8-2.4 2.3-9.1-4.9-9.1H197l-6 18.6zM211.6 38.1c-1.6 0-2.7-1.2-2.7-2.8s1.1-2.8 2.7-2.8 2.7 1.2 2.7 2.8c0 1.6-1.2 2.8-2.7 2.8zm0 .8c2 0 3.7-1.6 3.7-3.7 0-2-1.6-3.7-3.7-3.7-2 0-3.7 1.6-3.7 3.7s1.6 3.7 3.7 3.7zm.8-3.3c.7 0 1.1-.3 1.1-1.1 0-.9-.5-1.2-1.5-1.2h-1.9v4h.8v-1.7h.7l.9 1.7h1l-1.1-1.7zm-1.5-.6v-1.1h.9c.4 0 .9 0 .9.5s-.3.6-.8.6h-1z"></path> <path d="M70.7 14.2c.6 0 .7 0 1.2-.3l.9.2-5 5.9-1.8-.1 4.6-4.7-.6-.4.7-.6z"></path> </svg>