<?xml version="1.0" encoding="utf-8"?>
<!-- Generator: Adobe Illustrator 26.5.0, SVG Export Plug-In . SVG Version: 6.00 Build 0)  -->
<svg version="1.1" id="Layer_1" xmlns="http://www.w3.org/2000/svg" xmlns:xlink="http://www.w3.org/1999/xlink" x="0px" y="0px"
	 viewBox="0 0 512 512" style="enable-background:new 0 0 512 512;" xml:space="preserve">
<style type="text/css">
	.st0{fill:#BF5900;}
	.st1{fill:#FFFFFF;}
</style>
<g id="XMLID_1_">
	<path id="XMLID_14_" d="M199.33,288.12c0,4.63,2.95,7.01,7.43,7.01c4.49,0,7.43-2.38,7.43-7.01v-11.64h-3.23V287
		c0,2.38-0.14,5.33-4.21,5.33c-4.07,0-4.21-2.81-4.21-5.33v-10.52h-3.23V288.12z M236.22,294.72h3.09v-13.33h0.14l8.28,13.33h3.37
		v-18.24H248v13.33l0,0l-8.28-13.33h-3.37v18.24H236.22z M273.11,294.72h3.23v-18.24h-3.23V294.72z M302.57,294.72h3.51l6.17-18.24
		h-3.23l-4.63,14.31l0,0l-4.49-14.31h-3.37L302.57,294.72L302.57,294.72z M332.59,294.72h13.33v-2.81h-10.1v-5.33h9.12v-2.52h-9.12
		v-4.77h9.96v-2.81h-13.05v18.24H332.59z M370.18,279.15h5.19c1.68,0,3.09,0.42,3.09,2.81c0,1.96-1.12,2.95-3.09,2.95h-5.19V279.15z
		 M366.96,294.72h3.23v-7.43h4.63c2.95,0,3.65,1.54,3.65,4.77c0,0.84,0,1.82,0.42,2.67h3.37c-0.7-0.7-0.98-2.67-0.98-4.77
		c0-2.95-1.54-3.65-2.67-3.79l0,0c0.56-0.14,2.95-1.12,2.95-4.63c0-3.09-2.1-4.91-6.03-4.91h-8.7L366.96,294.72L366.96,294.72z
		 M402.31,288.68c0.14,4.49,3.37,6.45,7.57,6.45c3.65,0,7.29-1.68,7.29-5.75c0-1.82-1.12-3.93-3.51-4.63
		c-0.98-0.28-4.91-1.26-5.19-1.4c-1.26-0.42-2.1-1.12-2.1-2.38c0-1.82,1.82-2.38,3.37-2.38c2.24,0,3.79,0.84,3.93,3.23h3.23
		c0-3.79-3.23-5.75-7.01-5.75c-3.23,0-6.59,1.68-6.59,5.33c0,1.82,0.98,3.79,4.07,4.63c2.52,0.7,4.21,0.98,5.47,1.54
		c0.7,0.28,1.54,0.84,1.54,2.24s-0.98,2.81-3.79,2.81c-2.52,0-4.63-1.12-4.63-3.93L402.31,288.68L402.31,288.68z M438.22,294.72
		h3.23v-18.24h-3.23V294.72z M462.06,279.29h5.75v15.43h3.23v-15.43h5.75v-2.81h-14.73V279.29L462.06,279.29z M502.04,294.72h3.23
		v-7.15l6.73-11.08h-3.51l-4.77,8.14l-4.77-8.14h-3.65l6.87,11.08v7.15H502.04z"/>
	<path id="XMLID_25_" d="M199.47,252.07h4.35V212.8h0.14l15.57,39.28h4.07l15.57-39.28h0.14v39.28h4.35v-45.45h-6.31l-15.71,39.84
		l-15.71-39.84h-6.31v45.45H199.47z M256.56,252.07h4.63l5.47-14.17h20.62l5.47,14.17h4.63l-17.53-45.45h-4.77L256.56,252.07
		L256.56,252.07z M277.18,210.97l8.84,23.29H268.2L277.18,210.97z M310.71,252.07h4.35v-38.44h0.14l26.51,38.44h4.77v-45.45h-4.35
		v38.44h-0.14l-26.51-38.44h-4.77V252.07z M364.99,252.07h4.35v-45.45h-4.35V252.07z M388,252.07h4.35v-19.5h15.85
		c8.14,0,13.47-4.77,13.47-13.05c0-8.28-5.33-13.05-13.47-13.05H388V252.07z M392.21,210.27h14.87c6.03,0,10.1,3.09,10.1,9.26
		c0,6.17-4.07,9.26-10.1,9.26h-14.87V210.27z M427.41,252.07h4.63l5.47-14.17h20.62l5.47,14.17h4.63l-17.81-45.45h-4.77
		L427.41,252.07L427.41,252.07z M447.89,210.97l8.84,23.29h-17.81L447.89,210.97z M481.56,252.07h29.74v-3.65h-25.39v-41.8h-4.35
		V252.07z"/>
	<polygon id="XMLID_26_" class="st0" points="198.91,267.36 511.3,267.36 511.3,264.28 198.91,264.28 	"/>
	<rect id="XMLID_27_" x="40.26" y="200.59" width="79.96" height="114.46"/>
	<path id="XMLID_28_" class="st0" d="M69.86,209.01c4.07-3.65,12.2-0.84,17.39,5.33c5.75,6.45,6.45,13.47,2.38,17.11
		c-4.07,3.65-10.94,1.68-16.27-4.49C67.75,220.79,65.79,212.66,69.86,209.01"/>
	<path id="XMLID_29_" class="st0" d="M58.07,236.64h48.25c8.98,0.84,9.4,17.11,1.68,17.11c-4.91,0-10.94,0-10.94,7.29
		c-0.42,4.07,0,8.56,0,13.05c0,1.96-0.42,4.07-0.42,6.03c0.42,6.45-7.29,4.49-7.72-2.38c-0.42-6.87-0.42-14.17-0.42-21.18
		c0-3.23-5.75-2.81-6.03,2.81c-0.42,6.03-0.42,12.62-0.42,19.08c-0.42,7.29-8.14,4.91-8.56,0.84c-0.42-6.87-1.26-14.17-0.42-22.72
		c0.42-3.65-7.72-3.23-7.72,0.42c0,6.03,0.84,12.62,0,18.24c-0.84,7.72-8.56,5.75-8.98-2.81c-0.42-3.65,0-9.4-0.42-15.85
		c0-2.38-0.42-4.07-3.65-5.75c-1.96-1.26-2.81-1.96-4.07-4.49c-1.68-2.38-2.81-6.03-0.84-7.72
		C49.94,236.64,55.27,237.06,58.07,236.64"/>
	<polygon id="XMLID_30_" class="st1" points="48.68,304.82 48.68,304.82 47.55,304.82 45.87,304.82 45.87,291.07 47.97,291.07 
		50.36,291.07 52.74,302.01 55.27,291.07 57.23,291.07 59.34,291.07 59.34,304.82 58.07,304.82 56.81,304.82 56.81,293.03 
		54.01,304.82 52.74,304.82 51.2,304.82 48.68,293.03 	"/>
	<path id="XMLID_33_" class="st1" d="M64.53,305.24c-1.26,0-1.68-0.42-2.38-0.84c-0.42-0.84-0.84-1.26-0.84-2.38
		c0-0.84,0.42-1.68,0.84-1.96c0.42-0.84,1.26-0.84,2.38-1.26h1.68c0.42-0.42,0.84-0.42,1.26-0.42c0,0,0-0.42,0.42-0.42v-0.42
		c0-0.42-0.42-0.84-0.42-0.84c-0.42,0-0.84-0.42-1.68-0.42c-0.42,0-0.84,0.42-1.26,0.42c0,0.42-0.42,0.84-0.42,1.26h-2.38
		c0-1.26,0.42-1.96,1.26-2.81c0.84-0.42,1.96-0.84,3.23-0.84s2.38,0.42,3.23,0.84c0.42,0.42,0.84,1.26,0.84,1.96v6.03
		c0,0.42,0,0.84,0.42,0.84c0,0.42,0,0.42,0.42,0.42v0.42h-1.68h-1.26c-0.42-0.42-0.42-0.84-0.42-1.26
		C67.05,304.82,65.79,305.24,64.53,305.24L64.53,305.24z M67.75,301.17v-1.26c-0.42,0-0.84,0.42-1.26,0.42h-1.26
		c-0.42,0.42-0.84,0.42-0.84,0.84c-0.42,0-0.42,0.42-0.42,0.84c0,0.42,0,0.84,0.42,0.84c0,0.42,0.42,0.42,0.84,0.42
		c0.84,0,1.68-0.42,1.96-0.84c0-0.42,0-0.42,0.42-0.84L67.75,301.17L67.75,301.17z"/>
	<path id="XMLID_34_" class="st1" d="M72.66,304.82v-10.1h1.26h1.68v1.26c0,0,0,0,0-0.42c0.84-0.84,1.96-1.26,3.23-1.26
		c0.84,0,1.68,0.42,2.38,0.84c0.42,0.84,0.84,1.68,0.84,2.81v6.87H80.8h-1.26v-6.45c0-0.42-0.42-0.84-0.42-1.26
		c-0.42-0.42-0.84-0.42-1.68-0.42c-0.42,0-1.26,0-1.68,0.42c-0.42,0.42-0.42,1.26-0.42,1.96v5.75h-1.26H72.66L72.66,304.82z"/>
	<path id="XMLID_37_" class="st1" d="M84.87,304.82v-10.1h1.26h1.26v10.1h-1.26H84.87z M84.87,291.07h2.38v2.38h-2.38V291.07z"/>
	<path id="XMLID_40_" class="st1" d="M90.2,294.72L90.2,294.72h1.26h1.26v1.26c0.84-1.26,1.68-1.68,2.81-1.68
		c1.68,0,2.38,0.42,3.23,1.68c0.84,0.84,1.26,1.96,1.26,3.65c0,1.68-0.42,2.81-1.26,4.07c-0.84,0.84-1.68,1.68-3.23,1.68
		c-0.84,0-1.96-0.42-2.81-1.68v5.33h-1.26H90.2V294.72L90.2,294.72z M94.97,302.85c0.42,0,1.26,0,1.68-0.84
		c0.42-0.42,0.42-1.26,0.42-1.96c0-1.26,0-1.96-0.42-2.38c-0.42-0.42-1.26-0.84-1.68-0.84c-0.84,0-1.68,0.42-1.96,0.84
		c-0.42,0.42-0.42,1.26-0.42,2.38c0,0.84,0,1.68,0.42,1.96C93.42,302.85,94.12,302.85,94.97,302.85z"/>
	<path id="XMLID_43_" class="st1" d="M104.36,305.24c-0.84,0-1.68-0.42-2.38-0.84c-0.42-0.84-0.84-1.26-0.84-2.38
		c0-0.84,0.42-1.68,0.84-1.96c0.42-0.84,1.26-0.84,2.38-1.26h1.68c0.42-0.42,0.84-0.42,1.26-0.42c0,0,0-0.42,0.42-0.42v-0.42
		c0-0.42-0.42-0.84-0.42-0.84c-0.42,0-0.84-0.42-1.68-0.42c-0.42,0-0.84,0.42-0.84,0.42c-0.42,0.42-0.84,0.84-0.84,1.26h-2.38
		c0-1.26,0.42-1.96,1.26-2.81c0.84-0.42,1.96-0.84,3.23-0.84c1.26,0,2.38,0.42,3.23,0.84c0.84,0.42,0.84,1.26,0.84,1.96v6.03
		c0,0.42,0.42,0.84,0.42,0.84c0,0.42,0,0.42,0.42,0.42v0.42h-1.68h-1.26c-0.42-0.42-0.42-0.84-0.42-1.26
		C106.75,304.82,105.63,305.24,104.36,305.24L104.36,305.24z M107.59,301.17v-1.26c-0.42,0-0.84,0.42-1.26,0.42h-1.26
		c-0.42,0.42-0.84,0.42-0.84,0.84c-0.42,0-0.42,0.42-0.42,0.84c0,0.42,0,0.84,0.42,0.84c0,0.42,0.42,0.42,0.84,0.42
		c0.84,0,1.68-0.42,1.96-0.84c0-0.42,0-0.42,0.42-0.84v-0.42H107.59z"/>
	<polygon id="XMLID_44_" class="st1" points="112.5,304.82 112.5,291.07 114.04,291.07 115.31,291.07 115.31,304.82 114.04,304.82 	
		"/>
	<rect id="XMLID_45_" x="0" y="321.93" width="1.96" height="13.75"/>
	<polygon id="XMLID_46_" points="4.91,335.68 6.45,335.68 6.45,324.31 6.87,324.31 13.75,335.68 15.85,335.68 15.85,321.93 
		14.17,321.93 14.17,332.87 6.87,321.93 4.91,321.93 	"/>
	<path id="XMLID_47_" d="M28.76,326c-0.42-3.23-2.38-4.49-5.33-4.49c-2.38,0-4.91,1.26-4.91,4.07c0,2.38,1.96,3.23,4.49,3.65
		c1.96,0.42,4.07,0.84,4.07,2.81c0,1.68-1.68,2.38-3.23,2.38c-1.96,0-4.07-1.26-4.07-3.23H18.1c0,3.23,2.38,4.91,5.75,4.91
		c2.38,0,5.33-1.26,5.33-4.49c0-2.38-1.96-3.23-4.49-3.65c-1.96-0.84-4.49-0.84-4.49-2.38c0-1.96,1.68-2.38,3.23-2.38
		c1.68,0,3.23,0.84,3.23,2.81L28.76,326L28.76,326z"/>
	<path id="XMLID_50_" d="M31.28,335.68h1.96v-5.75h4.07c2.81,0,4.49-1.68,4.49-4.07c0-2.81-1.68-4.07-4.49-4.07h-6.03V335.68
		L31.28,335.68z M33.24,323.47h3.65c1.96,0,2.81,0.84,2.81,2.38c0,1.68-0.84,2.38-2.81,2.38h-3.65V323.47L33.24,323.47z"/>
	<rect id="XMLID_51_" x="43.91" y="321.93" width="1.96" height="13.75"/>
	<path id="XMLID_54_" d="M50.78,327.96v-4.49h4.49c1.96,0,2.38,0.84,2.38,1.96c0,1.96-1.26,2.38-2.81,2.38L50.78,327.96
		L50.78,327.96z M49.1,335.68h1.68v-6.03h4.49c1.96,0,1.96,1.26,2.38,2.38c0.42,1.68,0,2.81,0.42,3.65h1.96
		c-0.84-1.26-0.84-2.38-0.84-4.07c0-1.26-0.42-2.38-1.96-2.81c1.68-0.42,2.38-1.68,2.38-3.23c0-2.38-1.68-3.65-4.07-3.65H49.1
		C49.1,321.93,49.1,335.68,49.1,335.68z"/>
	<polygon id="XMLID_55_" points="62.14,335.68 71.82,335.68 71.82,334.13 64.11,334.13 64.11,329.22 71.12,329.22 71.12,327.54 
		64.11,327.54 64.11,323.47 71.82,323.47 71.82,321.93 62.14,321.93 	"/>
	<path id="XMLID_58_" d="M73.92,335.68h4.91c4.49,0,6.45-2.81,6.45-7.29c0-4.49-1.96-6.45-6.45-6.45h-4.91L73.92,335.68
		L73.92,335.68z M75.89,323.47h3.23c3.23,0,4.49,1.68,4.49,5.33c0,4.91-3.23,5.33-4.91,5.33h-2.81V323.47L75.89,323.47z"/>
	<path id="XMLID_62_" d="M94.97,329.22h4.07c1.68,0,2.81,0.42,2.81,2.38c0,1.68-0.84,2.38-2.38,2.38h-4.49V329.22z M93,335.68h6.87
		c2.38,0,4.07-1.96,4.07-4.07c0-1.68-0.84-2.81-2.81-3.23c1.68-0.84,2.38-1.68,2.38-3.23c0-1.26-0.84-2.38-1.68-2.81
		c-1.26-0.42-2.38-0.42-3.65-0.42h-5.33v13.75H93z M94.97,323.47h3.65c1.68,0,2.81,0,2.81,1.96c0,1.26-0.84,1.96-2.81,1.96h-3.65
		V323.47z"/>
	<polygon id="XMLID_63_" points="117.27,321.93 115.31,321.93 111.24,328.38 107.17,321.93 104.78,321.93 109.97,330.06 
		109.97,335.68 112.08,335.68 112.08,330.06 	"/>
	<polygon id="XMLID_64_" points="124.28,335.68 133.12,335.68 133.12,334.13 125.83,334.13 125.83,321.93 124.28,321.93 	"/>
	<rect id="XMLID_65_" x="135.22" y="321.93" width="1.68" height="13.75"/>
	<polygon id="XMLID_66_" points="140.13,335.68 141.68,335.68 141.68,329.22 148.13,329.22 148.13,327.54 141.68,327.54 
		141.68,323.47 148.97,323.47 148.97,321.93 140.13,321.93 	"/>
	<polygon id="XMLID_67_" points="151.08,335.68 160.75,335.68 160.75,334.13 153.04,334.13 153.04,329.22 159.91,329.22 
		159.91,327.54 153.04,327.54 153.04,323.47 160.75,323.47 160.75,321.93 151.08,321.93 	"/>
	<path id="XMLID_76_" class="st0" d="M55.69,192.46c-1.68-0.28-2.38-0.56-2.38-1.4c0-0.56,0-0.84,0.42-1.12
		c0.7-0.7,1.82-0.84,3.09-0.14c0.42,0.28,0.56,0.56,0.84,0.98c0.56-0.14,1.4-0.14,1.68-0.98c0-0.56,0-0.98-0.56-1.26
		c-3.09,0-6.17-0.14-4.91-3.37c2.95-2.95,7.15,1.12,8.7-1.96c-3.93,0-7.72,0-11.5,0c0,3.23,0,6.31,0,9.54c-0.84,0-1.54,0-2.1,0
		c0-0.98,0-1.96,0-2.81c-2.52,0.7-4.63,1.96-6.87,3.09c-0.28-0.56-0.42-0.98-0.56-1.54c0.98-0.56,1.82-0.98,2.81-1.54
		c-1.68-0.56-1.82-1.96-1.96-2.38c-0.14-1.4-0.14-2.95-0.14-4.35c-0.56,0-1.12,0-1.54,0c0-0.7,0-1.4,0-1.96c14.59,0,29.46,0,44.19,0
		c0,0.56,0,1.26,0,1.96c-0.56,0-1.26,0-1.82,0.14c0,3.09,0,6.17,0,9.26c-0.7,0-1.4,0-1.96,0c-0.14-1.68-0.14-3.37-0.14-5.05
		c-0.7,0-1.4,0-1.96,0.14c0,0.14,0,0.42,0,0.56c0,3.79-3.23,4.21-5.19,3.09c-1.96-0.98-1.96-3.51-0.42-4.91
		c0.14-0.14,0.42-0.42,0.84-0.56c1.4-0.56,4.91-0.28,6.59-0.28c0-0.7,0-1.4,0-2.1c-3.51,0-7.01,0-10.52,0c0,3.09,0,6.17,0,9.4
		c-0.7,0-1.4,0-2.1,0c-0.14-3.23-0.14-6.31-0.14-9.4c-0.98,0-1.96,0-3.09,0.14c0,3.09,0,6.17,0,9.26c-0.84,0-1.54,0-2.1,0
		c-0.14-2.38-0.14-4.77-0.14-7.01c-1.4,1.12-6.17-0.84-7.01,0.42c-0.28,0.56,0.42,0.7,0.84,0.7c2.38,0.14,4.63-0.28,4.77,2.95
		c-0.14,2.1-1.96,2.52-3.51,2.95c0.14,1.4,1.12,1.4,1.96,1.12c0,0.56,0,0.98,0,1.68C57.79,195.26,56.11,194.7,55.69,192.46
		L55.69,192.46z M80.66,177.73h2.24v0.14C82.06,177.87,81.36,177.87,80.66,177.73L80.66,177.73z M104.36,191.19
		c0-1.68,0-1.96,0.42-3.09c0.14-0.28,0.42-0.42,0.56-0.56c-0.14-0.28-1.12-0.42-1.12-1.4c-0.42-2.67,2.81-2.81,5.19-2.52
		c0-0.28,0-0.56,0-0.84c-2.67,0-5.47,0-8.14,0.14c0,3.09,0,6.17,0,9.26c-0.84,0-1.54,0-2.1,0c-0.14-0.56-0.14-1.12-0.14-1.54
		c-1.96,0.84-3.93,1.68-5.89,2.52c-0.28-0.56-0.42-0.98-0.56-1.4c0.56-0.28,1.26-0.56,1.96-0.84c-1.68-0.84-2.24-1.68-2.52-2.52
		c-0.42-2.38,0.84-4.49,3.23-4.77c0.98-0.14,2.38,0,3.79,0.7c0-0.56,0-1.12,0-1.54c-2.67,0-5.47,0-8.14,0c0-0.7,0-1.4,0-1.96
		c8.7,0,17.39,0,26.23,0c0.84,0,1.82,0,2.67,0v1.96c-0.84,0-1.68,0-2.52,0c0,3.09,0,6.17,0,9.26c-0.84,0-1.54,0-2.1,0
		c0-0.56,0-1.12,0-1.68c-0.84,0-1.68,0-2.52,0c-0.56,1.26-2.24,0.84-2.81,0.56c-0.84-0.84-0.56-1.26-0.56-1.68
		c0.84-0.7,1.4-0.28,1.54-0.28c-0.14-1.54-2.95-0.98-3.37-0.7c-2.95,2.67,1.26,4.77,4.35,4.21c-0.14,0.7,0,1.4,0,2.1
		C108.85,194.7,105.35,194.42,104.36,191.19L104.36,191.19z M76.87,188.39c0,0.56-0.28,0.98-0.84,1.26c-0.56,0.28-1.26,0-1.54-0.28
		c-0.84-0.7-0.14-2.67,1.68-1.96C76.59,187.41,76.87,187.83,76.87,188.39L76.87,188.39z M93.98,186.56l3.79,2.52
		C96.65,190.49,92.72,189.23,93.98,186.56z M46.01,188.53c-2.67-0.84-1.82-2.67-1.82-5.47c1.54,0,2.95,0,4.49,0
		c0,1.26-0.14,2.52-0.14,3.79C48.53,188.11,47.13,188.39,46.01,188.53z M112.64,188.39c-0.42-1.54-1.4-1.82-2.24-1.96
		c-1.26-0.28-2.52-0.14-3.79,0.14c-0.56-0.14-0.56-0.98,0.14-1.26c1.54-0.28,3.09-0.14,4.77-0.14c0-0.84,0-1.54,0.14-2.38
		c1.12,0,2.38,0,3.51,0c0,1.82,0,3.65,0,5.47C114.32,188.39,113.48,188.39,112.64,188.39z M98.89,188.11l-3.79-2.67
		C96.79,185.02,99.17,185.58,98.89,188.11"/>
	<rect id="XMLID_77_" x="80.66" y="175.9" class="st0" width="2.24" height="1.82"/>
</g>
</svg>
